# xmcd
#
# Track frame offsets: 
#        150
#        7822
#        13725
#        22952
#        31320
#        41925
#        50765
#        60247
#        71345
#        78402
#        87225
#        96872
#        110112
#        119322
#        126125
#        134775
#        143455
#        152185
#        159917
#        170110
#        178287
#        190845
#        197290
#        204420
#        213750
#        221272
#        229275
#        236190
#        245045
#        256817
#        266937
#        276887
#        284525
#        291687
#        302080
#        309772
#
# Disc length: 4233 seconds
#
# Revision: 2
# Processed by: cddbd v1.5.2PL0 Copyright (c) Steve Scherf et al.
# Submitted via: ExactAudioCopy v0.99pb4
#
DISCID=15108724
DTITLE=Johnny Burnette - Train Kept A-Rollin (Memphis to Hollywood) Di
DTITLE=sk 9
DYEAR=2003
DGENRE=Rock and Roll
TTITLE0=Crazy Legs
TTITLE1=No Foolin' Around (Your Love My Love)
TTITLE2=Whisper Tenderly
TTITLE3=Candle Of Love
TTITLE4=Blues Gonna Get You
TTITLE5=Honey Tree
TTITLE6=Speak No Evil
TTITLE7=My Destiny
TTITLE8=We're Having A Party
TTITLE9=It's Late
TTITLE10=Believe What You Say
TTITLE11=School's Out
TTITLE12=You Gotta Get Ready
TTITLE13=House With A Tin Rooftop
TTITLE14=How Do You Rock
TTITLE15=Fantabulous
TTITLE16=Just One More Time
TTITLE17=Makin' Love
TTITLE18=Teenage Dream
TTITLE19=It's For Me
TTITLE20=You Pass Me By
TTITLE21=There's Gonna Be Lovin'
TTITLE22=Operator
TTITLE23=Baby Doll
TTITLE24=Treat Me
TTITLE25=Charleston Rock 'N' Roll
TTITLE26=I Feel So Welcome
TTITLE27=Mean It
TTITLE28=Like A Fool
TTITLE29=Too Much Alike
TTITLE30=Sugarfoot Sally
TTITLE31=Hey Little Freshman
TTITLE32=Water Boy
TTITLE33=Magic Night Of Love
TTITLE34=Date Me
TTITLE35=Hey Gang
EXTD=
EXTT0=
EXTT1=
EXTT2=
EXTT3=
EXTT4=
EXTT5=
EXTT6=
EXTT7=
EXTT8=
EXTT9=
EXTT10=
EXTT11=
EXTT12=
EXTT13=
EXTT14=
EXTT15=
EXTT16=
EXTT17=
EXTT18=
EXTT19=
EXTT20=
EXTT21=
EXTT22=
EXTT23=
EXTT24=
EXTT25=
EXTT26=
EXTT27=
EXTT28=
EXTT29=
EXTT30=
EXTT31=
EXTT32=
EXTT33=
EXTT34=
EXTT35=
PLAYORDER=
